# xmcd
#
# Track frame offsets:
#	150
#	70990
#	135918
#	210510
#	281598
#	351498
#	427438
#	503598
#	560530
#	618790
#	692858
#	750810
#	823298
#
# Disc length: 11860 seconds
#
# Revision: 1
# Processed by: cddbd v1.4b42PL1 Copyright (c) Steve Scherf et al.
# Submitted via: audiograbber 1.80
#
DISCID=df2e520d
DTITLE=Lonestar - I'm Already There
DYEAR=1900
DGENRE=
TTITLE0=Out Go The Lights
TTITLE1=Unusually Unusual
TTITLE2=Not A Day Goes By
TTITLE3=I Want To Be The One
TTITLE4=With Me
TTITLE5=Without You
TTITLE6=I'm Already There
TTITLE7=Let's Bring It Back
TTITLE8=Must Be Love
TTITLE9=Softly
TTITLE10=Every Little Thing She Does
TTITLE11=Like A Good Cowboy
TTITLE12=No Greater Love
EXTD=
EXTT0=
EXTT1=
EXTT2=
EXTT3=
EXTT4=
EXTT5=
EXTT6=
EXTT7=
EXTT8=
EXTT9=
EXTT10=
EXTT11=
EXTT12=
PLAYORDER=
